<svg width="20" height="20" viewBox="0 0 20 20" fill="none" xmlns="http://www.w3.org/2000/svg">
<path d="M19.9981 0.809951C19.9981 0.704414 19.9721 0.606423 19.9359 0.51371C19.9336 0.50881 19.9321 0.50391 19.9298 0.499011C19.8884 0.400643 19.8311 0.312446 19.7568 0.238952C19.7565 0.238575 19.7565 0.237822 19.7557 0.237445C19.7546 0.236314 19.7534 0.236314 19.7523 0.235183C19.7173 0.200508 19.6815 0.165833 19.6404 0.13832C19.6031 0.113068 19.5593 0.0983698 19.5171 0.0795241C19.5005 0.0719862 19.4847 0.0621862 19.4674 0.0557795C19.3792 0.0229897 19.2865 0 19.1866 0L12.6268 0.000753797C12.1794 0.000753797 11.8165 0.363328 11.8165 0.811081C11.8165 1.25883 12.1794 1.62141 12.6268 1.62141H17.2263L11.3936 7.45389C11.077 7.77048 11.077 8.28383 11.3936 8.60005C11.5519 8.75835 11.7596 8.83712 11.9669 8.83712C12.1746 8.83712 12.3819 8.75835 12.5402 8.60005L18.3782 2.76226L18.3793 7.374C18.3793 7.82138 18.7423 8.18433 19.1896 8.18433C19.6374 8.18433 20 7.82138 20 7.374L19.9981 0.809951ZM7.45831 11.4003L1.62109 17.2384L1.62071 12.6267C1.62071 12.1789 1.25775 11.8164 0.810357 11.8164C0.362588 11.8164 0 12.1793 0 12.6267L0.00113073 19.1897C0.00113073 19.2458 0.0071612 19.3005 0.0173379 19.3532C0.0248762 19.3906 0.0459838 19.4226 0.0584213 19.4576C0.0659595 19.4799 0.073498 19.5002 0.0832974 19.5213C0.11835 19.5986 0.164333 19.6672 0.221248 19.729C0.230294 19.7399 0.23331 19.7527 0.243486 19.7625C0.248386 19.7674 0.254794 19.7686 0.259693 19.7735C0.327161 19.8379 0.404427 19.8896 0.49149 19.9276C0.500158 19.9314 0.507697 19.9389 0.516366 19.9416C0.607578 19.9778 0.70671 20 0.810735 20H7.37201C7.81978 20 8.18236 19.637 8.18236 19.1897C8.18236 18.7423 7.81978 18.3793 7.37201 18.3793H2.77256L8.60447 12.5461C8.92107 12.2295 8.92107 11.7165 8.60447 11.3999C8.2871 11.0826 7.77413 11.0837 7.45827 11.4003L7.45831 11.4003Z" fill="#434343"/>
</svg>
