<svg width="12" height="12" viewBox="0 0 12 12" fill="none" xmlns="http://www.w3.org/2000/svg">
<g clip-path="url(#clip0_7203_5770)">
<path d="M8.42071 0.329355C10.2052 0.329355 11.6572 1.78129 11.6572 3.56582V8.42071C11.6572 10.2052 10.2052 11.6572 8.42071 11.6572H3.56582C1.78129 11.6572 0.329355 10.2052 0.329355 8.42071V3.56582C0.329355 1.78129 1.78129 0.329355 3.56582 0.329355H8.42071ZM8.42071 0.065918H3.56582C1.63284 0.065918 0.065918 1.63284 0.065918 3.56582V8.42071C0.065918 10.3537 1.63284 11.9206 3.56582 11.9206H8.42071C10.3537 11.9206 11.9206 10.3537 11.9206 8.42071V3.56582C11.9206 1.63284 10.3537 0.065918 8.42071 0.065918Z" fill="white"/>
<path d="M5.99317 3.43019C7.40638 3.43019 8.55615 4.57996 8.55615 5.99317C8.55615 7.40638 7.40638 8.55615 5.99317 8.55615C4.57996 8.55615 3.43019 7.40638 3.43019 5.99317C3.43019 4.57996 4.57996 3.43019 5.99317 3.43019ZM5.99317 3.16675C4.43217 3.16675 3.16675 4.43217 3.16675 5.99317C3.16675 7.55417 4.43217 8.81959 5.99317 8.81959C7.55417 8.81959 8.81959 7.55417 8.81959 5.99317C8.81959 4.43217 7.55417 3.16675 5.99317 3.16675Z" fill="white"/>
<path d="M9.1603 3.44657C9.50097 3.44657 9.77713 3.1704 9.77713 2.82973C9.77713 2.48906 9.50097 2.21289 9.1603 2.21289C8.81963 2.21289 8.54346 2.48906 8.54346 2.82973C8.54346 3.1704 8.81963 3.44657 9.1603 3.44657Z" fill="white"/>
<path d="M9.16078 2.47584C9.3556 2.47584 9.51419 2.6343 9.51419 2.82924C9.51419 3.02418 9.35573 3.18264 9.16078 3.18264C8.96584 3.18264 8.80738 3.02418 8.80738 2.82924C8.80738 2.6343 8.96597 2.47584 9.16078 2.47584ZM9.16078 2.2124C8.82016 2.2124 8.54395 2.48862 8.54395 2.82924C8.54395 3.16987 8.82016 3.44608 9.16078 3.44608C9.50141 3.44608 9.77762 3.16987 9.77762 2.82924C9.77762 2.48862 9.50154 2.2124 9.16078 2.2124Z" fill="white"/>
</g>
<defs>
<clipPath id="clip0_7203_5770">
<rect width="12" height="12" fill="white"/>
</clipPath>
</defs>
</svg>
