<svg width="12" height="12" viewBox="0 0 12 12" fill="none" xmlns="http://www.w3.org/2000/svg">
<g clip-path="url(#clip0_7203_5776)">
<path d="M11.8455 0.154709C11.7045 0.0137314 11.4988 -0.0353705 11.3088 0.0266222C11.2975 0.0303019 11.2871 0.0337003 11.2781 0.0366301L0.604645 3.52397C0.472433 3.56742 0.355479 3.63935 0.256994 3.73782C-0.0856647 4.0805 -0.0856647 4.63808 0.256994 4.98079L1.89011 6.6139C2.12552 6.84975 2.20774 7.19272 2.10424 7.50948L1.26873 10.0665C1.20723 10.2566 1.25649 10.4622 1.39721 10.6029C1.49786 10.7036 1.63159 10.7574 1.76936 10.7574C1.82427 10.7574 1.87984 10.7489 1.93417 10.7313L4.49068 9.8959C4.80744 9.79243 5.15043 9.87462 5.38579 10.1105C5.38624 10.1101 7.01935 11.7431 7.01935 11.7431C7.19073 11.9145 7.41578 12.0002 7.64087 12.0002C7.86594 12.0002 8.09099 11.9145 8.26237 11.7431C8.361 11.6445 8.4329 11.5274 8.47614 11.395C8.47971 11.3841 8.48311 11.3738 8.48618 11.3644L11.974 0.691127C12.0354 0.501001 11.9862 0.295452 11.8455 0.154709ZM2.43841 7.61865C2.48093 7.48852 2.50089 7.35526 2.49977 7.22356L2.64382 7.36761C2.90578 7.6296 3.29344 7.69267 3.61592 7.55223L3.86009 7.45107C4.02193 7.38404 4.17186 7.40478 4.28938 7.46218L1.61598 10.1356L2.43841 7.61865ZM4.38153 9.56173L1.86461 10.3842L4.538 7.71078C4.5954 7.82832 4.61615 7.97825 4.54911 8.14007L4.44782 8.38462C4.30759 8.70703 4.37073 9.09447 4.63258 9.35634L4.77662 9.50037C4.64488 9.49927 4.51164 9.51921 4.38153 9.56173ZM11.6396 0.582517C11.6049 0.68876 8.17225 11.1938 8.14232 11.2848C8.14218 11.2852 8.14206 11.2855 8.14192 11.2859C8.11605 11.3652 8.07292 11.4354 8.01374 11.4945C7.80817 11.7001 7.47357 11.7002 7.26798 11.4945L4.88118 9.10776C4.68276 8.90932 4.67425 8.5907 4.86182 8.38241L9.37843 3.36586C9.566 3.1574 9.55768 2.83889 9.35951 2.64067C9.16127 2.44248 8.84276 2.43419 8.63428 2.62178L6.38058 4.65088C6.30844 4.71582 6.3026 4.82701 6.36755 4.89915C6.43252 4.97127 6.54366 4.97711 6.61583 4.91218L8.86948 2.88311C8.93895 2.82063 9.04498 2.82335 9.11091 2.88928C9.17684 2.95523 9.17958 3.06129 9.11714 3.13069L4.92925 7.78213C4.8985 7.61066 4.81555 7.44894 4.68341 7.3168C4.55129 7.18468 4.38957 7.10171 4.21808 7.07096L6.09999 5.37663C6.17213 5.31166 6.17796 5.20051 6.11302 5.12835C6.04805 5.05618 5.93686 5.05037 5.86474 5.11532L3.61775 7.13839C3.40948 7.32594 3.09089 7.31748 2.89244 7.11898L0.505621 4.73221C0.300026 4.52659 0.300026 4.19201 0.505598 3.98642C0.564731 3.92729 0.634997 3.88407 0.714123 3.85805C0.820225 3.82339 11.3066 0.396844 11.4163 0.361359C11.4168 0.361195 11.4173 0.361031 11.4178 0.360867C11.4814 0.340148 11.55 0.356461 11.5968 0.403336C11.6438 0.450235 11.6601 0.519142 11.6396 0.582517Z" fill="white"/>
</g>
<defs>
<clipPath id="clip0_7203_5776">
<rect width="12" height="12" fill="white"/>
</clipPath>
</defs>
</svg>
