<svg width="14" height="14" viewBox="0 0 14 14" fill="none" xmlns="http://www.w3.org/2000/svg">
<path d="M13.2076 11.1615H11.7282C11.2635 11.1615 11.0232 10.8943 10.5869 10.409C10.4068 10.2086 10.1826 9.95921 9.88679 9.66339C8.94202 8.75243 8.62592 8.75243 8.52203 8.75243C8.32902 8.75243 8.28876 8.75243 8.28876 9.10587V10.4325C8.28876 10.9708 7.97189 11.1615 7.07829 11.1615C5.38298 11.1615 3.6491 10.125 2.4397 8.38869C0.497902 5.66639 0.0771484 3.72874 0.0771484 3.39512C0.0771484 3.13418 0.191788 2.823 0.737938 2.823H2.21749C2.69618 2.823 2.87597 3.07179 3.02473 3.50161C3.80077 5.76197 4.98066 7.34817 5.32458 7.34817C5.38667 7.34817 5.44537 7.34817 5.44537 6.93741V4.7588C5.41433 4.19667 5.22254 3.95909 5.06841 3.76839C4.95992 3.63408 4.85742 3.5073 4.85742 3.31675C4.85742 3.07394 5.05581 2.823 5.38759 2.823H7.71249C8.22913 2.823 8.28891 3.22101 8.28891 3.52051V6.45165C8.28891 6.65265 8.35438 6.71658 8.37051 6.72165C8.48146 6.72119 8.59795 6.65988 8.94617 6.3115C9.97562 5.16065 10.7234 3.35501 10.7309 3.33688C10.8774 2.99526 11.1414 2.82315 11.5166 2.82315H12.9962C13.2544 2.82315 13.4378 2.89369 13.5416 3.03307C13.6395 3.16461 13.6565 3.34164 13.5924 3.55924C13.3937 4.4467 11.6523 6.90637 11.5783 7.01086C11.4415 7.23015 11.4121 7.27733 11.5743 7.48571C11.6476 7.58806 11.8146 7.75172 11.9916 7.92506C12.1876 8.11699 12.4098 8.33475 12.5893 8.54681C13.3604 9.41414 13.7429 9.94907 13.8663 10.3328C13.9551 10.6371 13.8821 10.8225 13.8051 10.9249C13.724 11.0328 13.5545 11.1615 13.2076 11.1615ZM8.52219 8.44524C8.77528 8.44524 9.1839 8.5588 10.1022 9.44426C10.4057 9.74776 10.633 10.0006 10.8156 10.2036C11.26 10.6979 11.4154 10.8542 11.7282 10.8542H13.2076C13.3791 10.8542 13.5041 10.8136 13.5591 10.7403C13.6221 10.6563 13.601 10.521 13.5723 10.4227C13.4351 9.99609 12.8508 9.30334 12.3571 8.74797C12.1845 8.5442 11.9678 8.33183 11.7766 8.1445C11.5815 7.95349 11.4132 7.7886 11.3279 7.66919C11.0576 7.3219 11.1454 7.12412 11.3227 6.84029C11.3456 6.80756 13.1144 4.30947 13.2937 3.48778L13.2966 3.47641C13.3218 3.39251 13.342 3.27925 13.2952 3.2164C13.2537 3.16092 13.1479 3.13034 12.9965 3.13034H11.5169C11.2658 3.13034 11.1109 3.23069 11.0144 3.45567C10.9843 3.52927 10.2405 5.32539 9.16945 6.52265C8.81831 6.8744 8.62115 7.02854 8.36544 7.02854C8.18057 7.02854 7.98172 6.84797 7.98172 6.45181V3.52051C7.98172 3.15662 7.88015 3.13034 7.71264 3.13034H5.38774C5.23407 3.13034 5.16492 3.2393 5.16492 3.31675C5.16492 3.39512 5.21117 3.45597 5.30752 3.57522C5.47011 3.77653 5.71583 4.08065 5.75256 4.75035L5.75271 6.93725C5.75271 7.30069 5.71967 7.65536 5.32458 7.65536C4.63844 7.65536 3.39093 5.51533 2.73413 3.60181C2.6029 3.22301 2.50148 3.13034 2.21749 3.13034H0.738091C0.384646 3.13034 0.384646 3.27725 0.384646 3.39512C0.384646 3.65559 0.785576 5.54038 2.69126 8.21166C3.84411 9.86686 5.48379 10.8542 7.07859 10.8542C7.98172 10.8542 7.98172 10.6681 7.98172 10.4325V9.10587C7.98157 8.68742 8.07008 8.44524 8.52219 8.44524Z" fill="white"/>
</svg>
