<svg width="12" height="12" viewBox="0 0 12 12" fill="none" xmlns="http://www.w3.org/2000/svg">
<g clip-path="url(#clip0_7203_5763)">
<path d="M6.00742 11.9349C4.97277 11.9349 3.95445 11.6645 3.06259 11.1529L3.01477 11.1255L0.136717 11.8802L0.913858 9.04154L0.885407 8.99254C0.358532 8.0904 0.0800781 7.05826 0.0800781 6.00767C0.0800781 2.73933 2.73908 0.0803223 6.00742 0.0803223C9.27576 0.0803223 11.9348 2.73933 11.9348 6.00767C11.9348 9.276 9.27589 11.9349 6.00742 11.9349ZM3.0531 10.8375L3.19628 10.9199C4.04745 11.408 5.01953 11.6662 6.00742 11.6662C9.12744 11.6662 11.6659 9.12769 11.6659 6.00767C11.6659 2.88751 9.12744 0.349029 6.00742 0.349029C2.88727 0.349029 0.348784 2.88751 0.348784 6.00767C0.348784 7.01084 0.614593 7.99609 1.11736 8.85714L1.20298 9.00348L0.518965 11.5022L3.0531 10.8375Z" fill="white"/>
<path d="M7.53851 8.6312C7.35858 8.6312 7.15099 8.6088 6.92746 8.53781C6.68694 8.46154 6.41718 8.37052 6.07432 8.22247C4.84117 7.68993 3.94772 6.59298 3.5249 5.98641C3.51384 5.97048 3.50607 5.95928 3.50172 5.95349C3.31191 5.70019 2.87329 5.04015 2.87329 4.34889C2.87329 3.61745 3.23973 3.22651 3.39621 3.05949L3.42401 3.02959C3.61184 2.82437 3.82957 2.80225 3.91453 2.80225C4.01503 2.80225 4.11579 2.80317 4.20365 2.80751C4.21195 2.80791 4.22064 2.80791 4.22947 2.80778C4.3795 2.81054 4.52794 2.8469 4.65057 3.14169C4.6914 3.23968 4.75107 3.38497 4.81404 3.53829C4.92586 3.81055 5.07905 4.18345 5.10158 4.2285C5.12634 4.27802 5.20155 4.42884 5.11396 4.60455L5.09354 4.64578C5.05521 4.72402 5.02215 4.79159 4.94852 4.87734C4.92442 4.90553 4.89952 4.93583 4.87449 4.96625C4.8226 5.02948 4.76899 5.09481 4.72012 5.14341C4.64557 5.2177 4.64267 5.22692 4.67626 5.28475C4.77887 5.46073 5.06153 5.90962 5.47052 6.27448C5.926 6.68084 6.31497 6.84944 6.52388 6.94006C6.56721 6.95889 6.60225 6.97417 6.62793 6.98695C6.73673 7.04135 6.7532 7.02265 6.78942 6.98115C6.89519 6.86024 7.15692 6.55017 7.24596 6.41661C7.40784 6.17359 7.61095 6.24801 7.73253 6.29213C7.88229 6.34667 8.65535 6.72852 8.75414 6.77791L8.83291 6.81651C8.95369 6.87486 9.04089 6.91701 9.09081 7.00025L9.09094 7.00039C9.16642 7.12657 9.13349 7.48392 9.01599 7.81375C8.87045 8.22194 8.22094 8.55546 7.91575 8.60103C7.81261 8.61644 7.68471 8.6312 7.53851 8.6312ZM3.91453 3.06582C3.87554 3.06582 3.73882 3.07609 3.61842 3.20754L3.58839 3.23968C3.44179 3.39617 3.13673 3.72164 3.13673 4.34889C3.13673 4.96085 3.5386 5.56333 3.71142 5.79397C3.718 5.8028 3.72762 5.81637 3.74119 5.83573C4.14807 6.41937 5.00582 7.47405 6.17904 7.98064C6.5111 8.12408 6.77348 8.21246 7.00742 8.28662C7.36003 8.39871 7.67246 8.37092 7.87702 8.34023C8.14428 8.30032 8.67129 7.99644 8.76797 7.7251C8.87769 7.41754 8.874 7.18637 8.86215 7.1325C8.84239 7.1134 8.77416 7.08047 8.71871 7.0536L8.63651 7.01343C8.44592 6.91793 7.76348 6.58363 7.64256 6.5395C7.51256 6.49221 7.50716 6.50012 7.4654 6.56255C7.35884 6.72272 7.06182 7.0702 6.98805 7.1545C6.82064 7.34615 6.63531 7.28503 6.51031 7.2226C6.48792 7.21127 6.45723 7.1981 6.41942 7.18163C6.21289 7.09193 5.78269 6.90542 5.2956 6.47088C4.85842 6.08112 4.55784 5.60417 4.44904 5.41726C4.31061 5.17964 4.46195 5.02895 4.53453 4.95664C4.57404 4.91725 4.62344 4.85719 4.67125 4.79897C4.69733 4.76723 4.72341 4.73535 4.7487 4.70584C4.80047 4.64552 4.82181 4.60179 4.85711 4.52974L4.87831 4.48667C4.89939 4.44438 4.8961 4.40632 4.86606 4.34612C4.84117 4.2962 4.73276 4.03342 4.57049 3.63813C4.50766 3.48534 4.44825 3.34045 4.40755 3.24271C4.3359 3.07029 4.28966 3.07029 4.23118 3.07095C4.21722 3.07122 4.20378 3.07108 4.19074 3.07043C4.10671 3.06661 4.01055 3.06582 3.91453 3.06582Z" fill="white"/>
</g>
<defs>
<clipPath id="clip0_7203_5763">
<rect width="12" height="12" fill="white"/>
</clipPath>
</defs>
</svg>
