<svg width="18" height="18" viewBox="0 0 18 18" fill="none" xmlns="http://www.w3.org/2000/svg">
<path d="M13.1233 0C12.2791 0.0140802 11.4534 0.266775 10.7294 0.732566C10.0054 1.19836 9.40886 1.86075 9 2.65285C8.59114 1.86075 7.99461 1.19836 7.27063 0.732566C6.54665 0.266775 5.72086 0.0140802 4.87666 0C3.53091 0.0626963 2.263 0.693965 1.34992 1.75589C0.436849 2.81782 -0.047163 4.22408 0.00362936 5.66746C0.00362936 11.1138 8.21732 17.4043 8.56668 17.6712L9 18L9.43332 17.6712C9.78268 17.4059 17.9964 11.1138 17.9964 5.66746C18.0472 4.22408 17.5632 2.81782 16.6501 1.75589C15.737 0.693965 14.4691 0.0626963 13.1233 0ZM9 16.0208C6.56123 14.0673 1.50302 9.2681 1.50302 5.66746C1.45178 4.6503 1.77769 3.65268 2.40968 2.89217C3.04167 2.13166 3.92847 1.66997 4.87666 1.60779C5.82486 1.66997 6.71165 2.13166 7.34365 2.89217C7.97564 3.65268 8.30155 4.6503 8.2503 5.66746H9.7497C9.69845 4.6503 10.0244 3.65268 10.6564 2.89217C11.2883 2.13166 12.1751 1.66997 13.1233 1.60779C14.0715 1.66997 14.9583 2.13166 15.5903 2.89217C16.2223 3.65268 16.5482 4.6503 16.497 5.66746C16.497 9.26971 11.4388 14.0673 9 16.0208Z" fill="black"/>
</svg>
