<svg width="19" height="18" viewBox="0 0 19 18" fill="none" xmlns="http://www.w3.org/2000/svg">
<path d="M13.7483 0C12.9041 0.0140802 12.0784 0.266775 11.3544 0.732566C10.6304 1.19836 10.0339 1.86075 9.625 2.65285C9.21614 1.86075 8.61961 1.19836 7.89563 0.732566C7.17165 0.266775 6.34586 0.0140802 5.50166 0C4.15591 0.0626963 2.888 0.693965 1.97492 1.75589C1.06185 2.81782 0.577837 4.22408 0.628629 5.66746C0.628629 11.1138 8.84232 17.4043 9.19168 17.6712L9.625 18L10.0583 17.6712C10.4077 17.4059 18.6214 11.1138 18.6214 5.66746C18.6722 4.22408 18.1882 2.81782 17.2751 1.75589C16.362 0.693965 15.0941 0.0626963 13.7483 0ZM9.625 16.0208C7.18623 14.0673 2.12802 9.2681 2.12802 5.66746C2.07678 4.6503 2.40269 3.65268 3.03468 2.89217C3.66667 2.13166 4.55347 1.66997 5.50166 1.60779C6.44986 1.66997 7.33665 2.13166 7.96865 2.89217C8.60064 3.65268 8.92655 4.6503 8.8753 5.66746H10.3747C10.3234 4.6503 10.6494 3.65268 11.2814 2.89217C11.9133 2.13166 12.8001 1.66997 13.7483 1.60779C14.6965 1.66997 15.5833 2.13166 16.2153 2.89217C16.8473 3.65268 17.1732 4.6503 17.122 5.66746C17.122 9.26971 12.0638 14.0673 9.625 16.0208Z" fill="white"/>
</svg>
