<svg width="22" height="22" viewBox="0 0 22 22" fill="none" xmlns="http://www.w3.org/2000/svg">
<path d="M16.0396 0C15.0078 0.0172091 13.9985 0.326058 13.1137 0.895358C12.2288 1.46466 11.4997 2.27425 11 3.24237C10.5003 2.27425 9.77118 1.46466 8.88632 0.895358C8.00146 0.326058 6.99216 0.0172091 5.96037 0C4.31556 0.0766288 2.76589 0.848179 1.64991 2.14609C0.533927 3.444 -0.0576437 5.16277 0.00443589 6.92689C0.00443589 13.5836 10.0434 21.2719 10.4704 21.5981L11 22L11.5296 21.5981C11.9566 21.2739 21.9956 13.5836 21.9956 6.92689C22.0576 5.16277 21.4661 3.444 20.3501 2.14609C19.2341 0.848179 17.6844 0.0766288 16.0396 0ZM11 19.581C8.01929 17.1934 1.83703 11.3277 1.83703 6.92689C1.77439 5.6837 2.17273 4.46439 2.94517 3.53488C3.7176 2.60537 4.80147 2.04107 5.96037 1.96508C7.11927 2.04107 8.20313 2.60537 8.97557 3.53488C9.748 4.46439 10.1463 5.6837 10.0837 6.92689H11.9163C11.8537 5.6837 12.252 4.46439 13.0244 3.53488C13.7969 2.60537 14.8807 2.04107 16.0396 1.96508C17.1985 2.04107 18.2824 2.60537 19.0548 3.53488C19.8273 4.46439 20.2256 5.6837 20.163 6.92689C20.163 11.3296 13.9807 17.1934 11 19.581Z" fill="#434343"/>
</svg>
