<svg width="22" height="22" viewBox="0 0 22 22" fill="none" xmlns="http://www.w3.org/2000/svg">
<g clip-path="url(#clip0_7334_391)">
<path d="M21.0832 17.4165H19.2498V15.5832C19.2498 15.3401 19.1533 15.1069 18.9814 14.935C18.8094 14.7631 18.5763 14.6665 18.3332 14.6665C18.0901 14.6665 17.8569 14.7631 17.685 14.935C17.5131 15.1069 17.4165 15.3401 17.4165 15.5832V17.4165H15.5832C15.3401 17.4165 15.1069 17.5131 14.935 17.685C14.7631 17.8569 14.6665 18.0901 14.6665 18.3332C14.6665 18.5763 14.7631 18.8094 14.935 18.9814C15.1069 19.1533 15.3401 19.2498 15.5832 19.2498H17.4165V21.0832C17.4165 21.3263 17.5131 21.5594 17.685 21.7314C17.8569 21.9033 18.0901 21.9998 18.3332 21.9998C18.5763 21.9998 18.8094 21.9033 18.9814 21.7314C19.1533 21.5594 19.2498 21.3263 19.2498 21.0832V19.2498H21.0832C21.3263 19.2498 21.5594 19.1533 21.7314 18.9814C21.9033 18.8094 21.9998 18.5763 21.9998 18.3332C21.9998 18.0901 21.9033 17.8569 21.7314 17.685C21.5594 17.5131 21.3263 17.4165 21.0832 17.4165Z" fill="white"/>
<path d="M19.25 5.5H16.5C16.5 4.04131 15.9205 2.64236 14.8891 1.61091C13.8576 0.579463 12.4587 0 11 0C9.54131 0 8.14236 0.579463 7.11091 1.61091C6.07946 2.64236 5.5 4.04131 5.5 5.5H2.75C2.02065 5.5 1.32118 5.78973 0.805456 6.30546C0.289731 6.82118 0 7.52065 0 8.25L0 17.4167C0.00145554 18.6318 0.484808 19.7967 1.34403 20.656C2.20326 21.5152 3.3682 21.9985 4.58333 22H12.8333C13.0764 22 13.3096 21.9034 13.4815 21.7315C13.6534 21.5596 13.75 21.3264 13.75 21.0833C13.75 20.8402 13.6534 20.6071 13.4815 20.4352C13.3096 20.2632 13.0764 20.1667 12.8333 20.1667H4.58333C3.85399 20.1667 3.15451 19.8769 2.63879 19.3612C2.12306 18.8455 1.83333 18.146 1.83333 17.4167V8.25C1.83333 8.00688 1.92991 7.77373 2.10182 7.60182C2.27373 7.42991 2.50688 7.33333 2.75 7.33333H5.5V9.16667C5.5 9.40978 5.59658 9.64294 5.76849 9.81485C5.94039 9.98676 6.17355 10.0833 6.41667 10.0833C6.65978 10.0833 6.89294 9.98676 7.06485 9.81485C7.23676 9.64294 7.33333 9.40978 7.33333 9.16667V7.33333H14.6667V9.16667C14.6667 9.40978 14.7632 9.64294 14.9352 9.81485C15.1071 9.98676 15.3402 10.0833 15.5833 10.0833C15.8264 10.0833 16.0596 9.98676 16.2315 9.81485C16.4034 9.64294 16.5 9.40978 16.5 9.16667V7.33333H19.25C19.4931 7.33333 19.7263 7.42991 19.8982 7.60182C20.0701 7.77373 20.1667 8.00688 20.1667 8.25V12.8333C20.1667 13.0764 20.2632 13.3096 20.4352 13.4815C20.6071 13.6534 20.8402 13.75 21.0833 13.75C21.3264 13.75 21.5596 13.6534 21.7315 13.4815C21.9034 13.3096 22 13.0764 22 12.8333V8.25C22 7.52065 21.7103 6.82118 21.1945 6.30546C20.6788 5.78973 19.9793 5.5 19.25 5.5ZM7.33333 5.5C7.33333 4.52754 7.71964 3.59491 8.40728 2.90728C9.09491 2.21964 10.0275 1.83333 11 1.83333C11.9725 1.83333 12.9051 2.21964 13.5927 2.90728C14.2804 3.59491 14.6667 4.52754 14.6667 5.5H7.33333Z" fill="white"/>
</g>
<defs>
<clipPath id="clip0_7334_391">
<rect width="22" height="22" fill="white"/>
</clipPath>
</defs>
</svg>
