<svg width="22" height="23" viewBox="0 0 22 23" fill="none" xmlns="http://www.w3.org/2000/svg">
<path d="M21.7429 21.1236L16.2758 15.6565C17.7656 13.8344 18.4982 11.5093 18.3218 9.16225C18.1455 6.81519 17.0738 4.6257 15.3284 3.04665C13.583 1.46761 11.2974 0.61982 8.9445 0.67865C6.59156 0.737481 4.35124 1.69843 2.68695 3.36273C1.02265 5.02702 0.0617 7.26734 0.00286919 9.62028C-0.0559616 11.9732 0.791825 14.2588 2.37087 16.0041C3.94992 17.7495 6.13941 18.8212 8.48647 18.9976C10.8335 19.1739 13.1586 18.4414 14.9807 16.9516L20.4478 22.4187C20.6205 22.5855 20.8519 22.6778 21.092 22.6757C21.3322 22.6737 21.5619 22.5773 21.7317 22.4075C21.9016 22.2377 21.9979 22.008 22 21.7678C22.0021 21.5277 21.9097 21.2963 21.7429 21.1236ZM9.18846 17.1916C7.73925 17.1916 6.32259 16.7618 5.11762 15.9567C3.91265 15.1515 2.97349 14.0072 2.4189 12.6683C1.86432 11.3294 1.71921 9.85611 2.00194 8.43475C2.28466 7.01339 2.98252 5.70779 4.00727 4.68305C5.03201 3.6583 6.33761 2.96044 7.75897 2.67772C9.18033 2.39499 10.6536 2.5401 11.9925 3.09468C13.3314 3.64927 14.4758 4.58843 15.2809 5.7934C16.086 6.99837 16.5158 8.41503 16.5158 9.86424C16.5136 11.8069 15.7409 13.6694 14.3672 15.043C12.9936 16.4167 11.1311 17.1894 9.18846 17.1916Z" fill="white"/>
</svg>
